<?xml version="1.0" encoding="UTF-8"?>
<svg width="31px" height="31px" viewBox="0 0 31 31" version="1.1" xmlns="http://www.w3.org/2000/svg" xmlns:xlink="http://www.w3.org/1999/xlink">
    <!-- Generator: Sketch 52.1 (67048) - http://www.bohemiancoding.com/sketch -->
    <title>Shape</title>
    <desc>Created with Sketch.</desc>
    <g id="销售" stroke="none" stroke-width="1" fill="none" fill-rule="evenodd">
        <g id="点击效果" transform="translate(-626.000000, -156.000000)" fill="#999999">
            <g id="筛选条件-copy" transform="translate(0.000000, 128.000000)">
                <g id="分组-3" transform="translate(605.000000, 24.000000)">
                    <path d="M51.5967312,6.35067823 L44.5343562,13.4096064 C46.3921503,15.6913498 47.5054481,18.6004003 47.5054481,21.7714032 C47.5054481,29.0922837 41.5736046,35.0241272 34.252724,35.0241272 C26.9318435,35.0241272 21,29.0922837 21,21.7714032 C21,14.4505226 26.9318435,8.51867912 34.252724,8.51867912 C37.40994,8.51867912 40.3086502,9.62163665 42.5835001,11.4656438 L49.645875,4.40326885 C49.9147209,4.13442295 50.2662886,4 50.6213031,4 C50.9728708,4 51.3278853,4.13442295 51.5967312,4.40326885 C52.1344229,4.94096064 52.1344229,5.81298644 51.5967312,6.35067823 L51.5967312,6.35067823 Z M38.4439626,11.8447854 C37.1169669,11.2829664 35.7072493,11.0003336 34.252724,11.0003336 C32.7981988,11.0003336 31.3884812,11.2864132 30.0614854,11.8447854 C28.7792973,12.3859239 27.6280854,13.1648877 26.6354236,14.1541027 C25.6462086,15.1433178 24.8672448,16.2979764 24.3261063,17.5801646 C23.7642873,18.9071603 23.4816544,20.3168779 23.4816544,21.7714032 C23.4816544,23.2259284 23.767734,24.635646 24.3261063,25.9626418 C24.8672448,27.2448299 25.6462086,28.3960418 26.6354236,29.3887036 C27.6246386,30.3779186 28.7792973,31.1568824 30.0614854,31.6980209 C31.3884812,32.2598399 32.7981988,32.5424728 34.252724,32.5424728 C35.7072493,32.5424728 37.1169669,32.2563932 38.4439626,31.6980209 C39.7261508,31.1568824 40.8773627,30.3779186 41.8700245,29.3887036 C42.8592395,28.3994885 43.6382032,27.2482766 44.1793418,25.9626418 C44.7411608,24.635646 45.0237936,23.2259284 45.0237936,21.7714032 C45.0237936,20.3168779 44.737714,18.9071603 44.1793418,17.5801646 C43.6382032,16.2979764 42.8592395,15.1467645 41.8700245,14.1541027 C40.8773627,13.1648877 39.7261508,12.3893707 38.4439626,11.8447854 L38.4439626,11.8447854 Z" id="Shape" transform="translate(36.500000, 19.512064) scale(1, -1) translate(-36.500000, -19.512064) "></path>
                </g>
            </g>
        </g>
    </g>
</svg>