<?xml version="1.0" encoding="UTF-8"?>
<svg width="16px" height="28px" viewBox="0 0 16 28" version="1.1" xmlns="http://www.w3.org/2000/svg" xmlns:xlink="http://www.w3.org/1999/xlink">
    <!-- Generator: Sketch 52.1 (67048) - http://www.bohemiancoding.com/sketch -->
    <title>Shape Copy</title>
    <desc>Created with Sketch.</desc>
    <g id="销售" stroke="none" stroke-width="1" fill="none" fill-rule="evenodd">
        <g id="预约" transform="translate(-710.000000, -306.000000)" fill="#E0E0E0">
            <g id="分组-19-copy" transform="translate(0.000000, 276.000000)">
                <path d="M711.368388,30 C711.668845,30 711.972431,30.1167698 712.225941,30.3503093 L725.48985,42.7899391 C725.812215,43.0928107 726,43.5489427 726,44.034267 C726,44.5159423 725.812215,44.9757233 725.48985,45.2749459 L712.282277,57.6488927 C711.693883,58.1999 710.8332,58.0904284 710.360606,57.404406 C709.888013,56.7183836 709.981906,55.7148933 710.5703,55.163886 L722.450856,44.030618 L710.510835,32.835316 C709.922441,32.2843087 709.828548,31.2808184 710.301141,30.594796 C710.57343,30.2043471 710.967779,30 711.368388,30 Z" id="Shape-Copy" transform="translate(718.000000, 44.000000) scale(1, -1) translate(-718.000000, -44.000000) "></path>
            </g>
        </g>
    </g>
</svg>